<?xml version="1.0" standalone="no"?><svg xmlns="http://www.w3.org/2000/svg" viewBox="0 0 1440 320"><path fill="#e0efe3" fill-opacity="1" d="M0,32L30,53.3C60,75,120,117,180,133.3C240,149,300,139,360,122.7C420,107,480,85,540,112C600,139,660,213,720,229.3C780,245,840,203,900,165.3C960,128,1020,96,1080,74.7C1140,53,1200,43,1260,37.3C1320,32,1380,32,1410,32L1440,32L1440,320L1410,320C1380,320,1320,320,1260,320C1200,320,1140,320,1080,320C1020,320,960,320,900,320C840,320,780,320,720,320C660,320,600,320,540,320C480,320,420,320,360,320C300,320,240,320,180,320C120,320,60,320,30,320L0,320Z"></path></svg>