<?xml version="1.0" standalone="no"?><svg xmlns="http://www.w3.org/2000/svg" viewBox="0 0 1440 320"><path fill="#e0efe3" fill-opacity="1" d="M0,192L34.3,202.7C68.6,213,137,235,206,256C274.3,277,343,299,411,288C480,277,549,235,617,202.7C685.7,171,754,149,823,165.3C891.4,181,960,235,1029,229.3C1097.1,224,1166,160,1234,160C1302.9,160,1371,224,1406,256L1440,288L1440,0L1405.7,0C1371.4,0,1303,0,1234,0C1165.7,0,1097,0,1029,0C960,0,891,0,823,0C754.3,0,686,0,617,0C548.6,0,480,0,411,0C342.9,0,274,0,206,0C137.1,0,69,0,34,0L0,0Z"></path></svg>